<?xml version="1.0" standalone="no"?>
<!DOCTYPE svg PUBLIC "-//W3C//DTD SVG 20010904//EN"
 "http://www.w3.org/TR/2001/REC-SVG-20010904/DTD/svg10.dtd">
<svg version="1.0" xmlns="http://www.w3.org/2000/svg"
 width="1271.000000pt" height="1271.000000pt" viewBox="0 0 1271.000000 1271.000000"
 preserveAspectRatio="xMidYMid meet">
<metadata>
Created by potrace 1.14, written by Peter Selinger 2001-2017
</metadata>
<g transform="translate(0.000000,1271.000000) scale(0.100000,-0.100000)"
fill="#000000" stroke="none">
<path d="M4905 12698 c-160 -28 -299 -111 -395 -235 -17 -22 -36 -34 -60 -37
-31 -5 -112 -16 -230 -31 -19 -2 -91 -14 -160 -25 -69 -12 -138 -23 -155 -26
-16 -3 -43 -7 -60 -10 -16 -3 -109 -21 -205 -40 -96 -19 -186 -37 -200 -40
-58 -12 -244 -56 -250 -59 -4 -2 -17 -6 -31 -9 -41 -7 -230 -56 -319 -83 -47
-13 -92 -26 -100 -28 -17 -4 -1461 -416 -1560 -445 -36 -10 -177 -51 -314 -90
-137 -39 -253 -73 -256 -75 -4 -3 -7 -997 -6 -2211 l1 -2207 1013 0 1012 0 0
-1647 0 -1647 52 -29 c134 -75 709 -407 813 -469 39 -23 77 -45 85 -48 8 -4
29 -15 45 -26 24 -14 514 -299 640 -371 17 -9 122 -70 235 -135 113 -65 222
-128 242 -139 20 -12 79 -45 130 -75 182 -107 774 -448 833 -481 33 -18 87
-50 120 -70 l60 -37 3 -447 c2 -423 1 -447 -15 -442 -10 3 -65 17 -123 31
-797 198 -1642 578 -2310 1039 -116 80 -342 248 -414 308 -526 438 -898 870
-1183 1373 -54 95 -175 349 -216 455 -71 182 -150 438 -172 559 -3 14 -7 37
-10 51 -3 14 -8 41 -11 60 -4 19 -8 44 -10 55 -5 26 -15 100 -29 220 -7 65
-14 174 -16 258 l-2 78 54 54 c110 110 169 247 174 405 8 222 -90 418 -270
539 -246 165 -571 134 -778 -73 -201 -203 -241 -499 -100 -751 14 -26 53 -76
85 -111 l59 -63 4 -128 c6 -171 16 -308 30 -393 2 -14 7 -48 10 -77 16 -140
77 -425 126 -583 11 -36 22 -72 24 -80 7 -29 77 -226 107 -300 151 -373 322
-684 567 -1030 25 -36 51 -72 58 -80 6 -8 58 -73 115 -145 56 -71 108 -134
114 -140 6 -5 49 -52 94 -103 145 -163 403 -415 566 -551 16 -13 43 -36 60
-50 87 -74 137 -114 243 -193 64 -48 121 -91 126 -96 77 -59 337 -233 500
-332 290 -177 670 -374 975 -504 85 -37 164 -71 175 -76 11 -5 83 -32 160 -61
77 -28 149 -55 160 -60 11 -4 49 -17 85 -29 36 -12 74 -25 85 -30 30 -13 334
-105 415 -126 8 -2 125 -31 260 -64 135 -34 261 -65 280 -70 138 -38 684 -160
717 -160 4 0 8 374 8 832 l0 831 35 22 c19 12 217 127 440 255 421 243 545
314 570 330 8 6 22 13 30 17 8 4 55 31 104 60 49 29 90 53 92 53 2 0 67 38
146 84 79 46 217 126 308 178 91 53 206 119 255 148 50 29 110 63 135 77 42
24 320 185 400 231 19 12 71 41 115 67 44 25 98 56 120 69 39 22 463 268 535
309 19 11 49 28 65 38 17 10 39 23 50 28 11 6 60 34 110 63 l90 54 0 752 0
752 -417 0 -416 0 0 -497 c-1 -274 -1 -505 -1 -514 -1 -14 -112 -82 -575 -348
-506 -291 -956 -551 -991 -572 -16 -11 -36 -22 -44 -26 -8 -3 -64 -35 -125
-71 -61 -36 -131 -76 -156 -90 -25 -14 -78 -45 -118 -69 -41 -24 -75 -43 -77
-43 -3 0 -180 -104 -205 -120 -8 -6 -22 -13 -30 -17 -8 -4 -59 -33 -113 -65
-54 -32 -101 -58 -103 -58 -3 0 -30 -16 -60 -35 -30 -19 -56 -35 -58 -35 -1 0
-76 -43 -166 -95 l-163 -95 -31 19 c-17 10 -119 69 -226 131 -107 62 -267 154
-355 205 -88 51 -353 204 -590 340 -236 136 -442 256 -457 266 -15 10 -29 19
-32 19 -2 0 -75 41 -163 91 -87 51 -172 100 -190 110 -17 10 -50 29 -72 43
-22 15 -43 26 -45 26 -2 0 -77 43 -167 95 -89 52 -163 95 -164 95 -1 0 -54 30
-116 66 -63 37 -134 78 -159 92 -25 14 -83 48 -130 76 l-85 51 0 2630 0 2630
2985 0 2985 0 0 -1302 0 -1303 951 0 952 0 -3 -842 c-1 -464 -5 -854 -8 -868
-3 -14 -8 -52 -12 -85 -56 -545 -283 -1152 -611 -1634 -35 -51 -64 -97 -64
-101 0 -5 -3 -10 -7 -12 -5 -1 -44 -50 -87 -108 -75 -98 -209 -261 -266 -321
-155 -163 -246 -253 -400 -394 -146 -133 -450 -368 -650 -502 -380 -255 -839
-501 -1240 -665 l-94 -38 -81 20 c-78 19 -200 27 -260 15 -123 -24 -248 -89
-331 -172 -58 -58 -124 -153 -124 -177 0 -8 -4 -16 -8 -18 -5 -2 -18 -39 -30
-83 -18 -65 -21 -99 -18 -185 3 -58 12 -126 20 -153 84 -265 321 -440 596
-439 266 0 502 172 585 425 25 78 29 84 63 97 21 7 64 25 97 40 33 15 94 42
135 61 41 18 160 75 264 127 586 293 1122 653 1591 1066 124 109 441 429 540
546 50 58 92 107 95 110 39 39 240 309 330 445 343 518 602 1151 685 1675 3
19 8 42 10 50 4 17 9 51 24 165 10 82 16 133 27 265 4 41 7 612 8 1268 1 1058
0 1192 -14 1193 -8 1 -424 2 -925 3 l-910 1 0 1330 0 1330 -1711 1 c-941 1
-1715 4 -1720 7 -5 3 -9 305 -9 689 l0 683 49 -1 c56 -2 240 -13 306 -19 25
-2 86 -6 136 -10 50 -3 104 -8 120 -10 16 -2 63 -6 104 -10 76 -6 144 -13 190
-20 14 -2 57 -7 95 -10 39 -4 77 -8 85 -10 8 -2 40 -6 70 -10 30 -3 84 -10
120 -15 36 -5 83 -12 105 -15 22 -3 54 -7 70 -10 17 -3 48 -7 70 -10 60 -9
287 -44 310 -49 11 -2 40 -7 65 -11 25 -4 54 -9 65 -11 11 -2 58 -11 105 -19
132 -23 139 -25 245 -46 55 -11 111 -22 125 -24 14 -2 70 -14 125 -25 55 -12
109 -23 120 -25 19 -4 126 -28 270 -59 33 -8 157 -37 275 -66 118 -28 222 -53
230 -55 38 -9 146 -37 265 -69 72 -19 173 -46 225 -60 52 -14 201 -56 330 -93
l235 -68 1 -829 1 -829 -64 -69 c-75 -83 -107 -135 -138 -226 -40 -116 -47
-254 -18 -357 9 -34 56 -150 62 -155 3 -3 12 -18 20 -33 25 -47 134 -150 202
-190 104 -61 185 -82 319 -82 124 0 174 12 282 66 69 34 87 48 160 121 56 57
128 174 143 233 5 17 10 37 12 45 52 200 -16 442 -165 586 l-37 36 0 1133 c0
623 -2 1136 -5 1138 -9 9 -538 179 -800 257 -233 69 -620 179 -688 195 -9 3
-80 21 -157 41 -77 20 -147 38 -155 40 -8 2 -33 8 -55 14 -122 31 -689 170
-708 174 -12 2 -85 18 -162 36 -124 28 -272 58 -359 74 -16 3 -52 10 -80 15
-64 13 -71 14 -261 46 -16 3 -59 10 -95 15 -36 6 -90 15 -120 20 -30 5 -93 14
-140 20 -47 6 -96 13 -110 15 -14 2 -50 7 -80 10 -30 3 -66 8 -80 10 -14 2
-54 6 -90 10 -36 4 -76 8 -90 10 -29 4 -105 12 -205 20 -38 3 -83 8 -100 10
-16 2 -75 7 -130 10 -55 4 -116 8 -135 10 -19 2 -78 6 -130 10 -52 4 -117 8
-145 10 -208 15 -749 25 -917 17 l-68 -4 0 -1109 c0 -1049 -1 -1109 -17 -1110
-10 0 -778 -1 -1708 -1 l-1690 -1 -5 -1251 -5 -1251 -624 0 -624 0 0 1523 c1
838 3 1525 6 1528 4 5 1014 296 1067 309 8 1 71 19 140 40 69 20 132 38 140
40 8 2 119 32 245 68 229 65 306 86 335 92 8 2 44 11 80 20 68 18 89 23 130
31 14 3 45 10 70 15 25 6 54 12 64 15 11 2 63 12 115 23 53 11 110 22 126 25
17 3 41 8 55 11 13 2 40 7 60 10 20 3 45 7 57 9 11 3 38 7 59 10 22 4 66 11
99 16 33 5 78 12 100 15 22 4 51 8 65 10 14 3 49 7 79 11 30 3 62 7 70 9 9 1
36 -15 60 -37 174 -153 447 -191 659 -91 174 80 303 239 346 423 21 89 15 235
-13 323 -66 205 -229 359 -436 411 -76 19 -185 25 -250 14z"/>
<path d="M4430 6719 l0 -1855 77 -45 c43 -24 85 -48 95 -54 10 -5 116 -67 235
-136 229 -133 587 -340 638 -369 41 -23 499 -288 658 -381 70 -41 140 -81 155
-89 15 -8 58 -32 94 -53 l67 -38 163 94 c90 52 307 178 483 280 469 271 497
287 504 287 4 0 13 6 19 12 7 7 41 29 76 48 35 19 97 54 137 77 41 24 99 57
129 74 30 17 80 46 110 64 30 18 127 74 215 125 88 50 165 97 170 104 7 8 10
228 10 617 l0 604 -415 0 -415 0 -2 -350 c-1 -192 -2 -360 -2 -372 -1 -19 -56
-57 -186 -128 -11 -6 -94 -54 -185 -107 -91 -53 -181 -105 -200 -115 -19 -11
-165 -95 -323 -187 -257 -148 -291 -165 -310 -154 -12 6 -177 101 -367 211
-190 110 -354 205 -365 211 -11 6 -113 65 -228 131 l-207 119 0 1201 0 1200
1183 0 c650 0 1184 -3 1187 -6 3 -4 5 -190 5 -413 0 -223 2 -407 5 -407 17 -4
813 -3 819 1 8 6 9 1649 1 1651 -3 1 -911 2 -2017 3 l-2013 1 0 -1856z"/>
</g>
</svg>
